<svg width="512" height="512" viewBox="0 0 512 512" fill="none" xmlns="http://www.w3.org/2000/svg">
<g clip-path="url(#clip0_1993_10)">
<path d="M512 256C512 397.385 397.385 512 256 512C114.615 512 0 397.385 0 256C0 114.615 114.615 0 256 0C397.385 0 512 114.615 512 256Z" fill="white"/>
<path d="M504 256C504 119.033 392.967 8 256 8C119.033 8 8 119.033 8 256C8 392.967 119.033 504 256 504V512C114.615 512 0 397.385 0 256C0 114.615 114.615 0 256 0C397.385 0 512 114.615 512 256C512 397.385 397.385 512 256 512V504C392.967 504 504 392.967 504 256Z" fill="#E6E6E6"/>
<path d="M341 120C341 133.255 330.255 144 317 144C303.745 144 293 133.255 293 120C293 106.745 303.745 96 317 96C330.255 96 341 106.745 341 120Z" fill="#18181B"/>
<path d="M399 156C399 169.255 388.255 180 375 180C361.745 180 351 169.255 351 156C351 142.745 361.745 132 375 132C388.255 132 399 142.745 399 156Z" fill="#18181B"/>
<path d="M258 185C311.484 185 350.579 212.45 373.046 243.839C384.237 259.474 391.548 276.403 394.434 291.92C397.231 306.96 396.218 322.919 387.536 334.284C382.961 340.273 377.432 344.574 370.83 347.219C364.412 349.79 357.622 350.539 350.84 350.466C337.999 350.328 321.444 346.997 303.142 344.27C265.412 338.646 210.231 333.572 126.781 353.226C113.761 356.292 99.1403 346.113 101.601 330.486C104.507 312.029 112.736 276.043 135.62 244.407C158.925 212.19 197.138 185 258 185ZM258 209C205.615 209 174.333 231.838 155.066 258.474C137.357 282.956 129.574 311.059 126.26 328.715C210.661 309.543 267.559 314.7 306.68 320.531C327.185 323.587 340.456 326.353 351.098 326.467C356.057 326.52 359.423 325.934 361.905 324.939C364.203 324.019 366.319 322.523 368.464 319.716C371.165 316.18 373.094 308.438 370.838 296.309C368.671 284.657 362.934 270.948 353.529 257.809C334.805 231.648 302.516 209 258 209Z" fill="#18181B"/>
<path d="M326.394 127.468C308.125 150.449 296.84 173.733 291.771 199.331L268.229 194.669C274.14 164.817 287.294 138.084 307.606 112.532L326.394 127.468Z" fill="#18181B"/>
<path d="M380.794 165.717C357.933 179.8 346.834 197.498 339.232 217.722L316.768 209.278C325.707 185.494 339.673 162.861 368.206 145.283L380.794 165.717Z" fill="#18181B"/>
</g>
<defs>
<clipPath id="clip0_1993_10">
<rect width="512" height="512" fill="white"/>
</clipPath>
</defs>
</svg>
