<svg width="512" height="512" viewBox="0 0 512 512" fill="none" xmlns="http://www.w3.org/2000/svg">
<g clip-path="url(#clip0_1986_188)">
<path d="M512 256C512 397.385 397.385 512 256 512C114.615 512 0 397.385 0 256C0 114.615 114.615 0 256 0C397.385 0 512 114.615 512 256Z" fill="white"/>
<path d="M504 256C504 119.033 392.967 8 256 8C119.033 8 8 119.033 8 256C8 392.967 119.033 504 256 504V512C114.615 512 0 397.385 0 256C0 114.615 114.615 0 256 0C397.385 0 512 114.615 512 256C512 397.385 397.385 512 256 512V504C392.967 504 504 392.967 504 256Z" fill="#E6E6E6"/>
<path d="M345 215.7C345 212.71 343.41 208.961 340.22 205.778C337.031 202.597 333.262 201 330.242 201H181.758C177.73 201 174 202.35 171.396 204.659C168.959 206.82 167 210.25 167 215.7V296.675C167 299.665 168.59 303.414 171.78 306.597C174.97 309.778 178.738 311.375 181.758 311.375H229.994L255.97 337.286L281.945 311.375H330.242C333.262 311.375 337.031 309.778 340.22 306.597C343.41 303.414 345 299.665 345 296.675V215.7ZM363 296.675C363 305.535 358.65 313.636 352.932 319.341C347.212 325.047 339.101 329.375 330.242 329.375H289.389L255.97 362.713L222.551 329.375H181.758C172.899 329.375 164.788 325.047 159.068 319.341C153.35 313.636 149 305.535 149 296.675V215.7C149 205.35 152.981 196.931 159.453 191.191C165.758 185.601 173.907 183 181.758 183H330.242C339.101 183 347.212 187.328 352.932 193.034C358.65 198.739 363 206.84 363 215.7V296.675Z" fill="#18181B"/>
<path d="M274 256C274 265.941 265.941 274 256 274C246.059 274 238 265.941 238 256C238 246.059 246.059 238 256 238C265.941 238 274 246.059 274 256Z" fill="#18181B"/>
</g>
<defs>
<clipPath id="clip0_1986_188">
<rect width="512" height="512" fill="white"/>
</clipPath>
</defs>
</svg>
